<svg xmlns="http://www.w3.org/2000/svg" width="231.864" height="158.049" viewBox="0 0 231.864 158.049">
  <g id="logo" transform="translate(-843.323 -319.951)">
    <g id="undraw_metrics_re_6g90_1_" data-name="undraw_metrics_re_6g90(1)" transform="translate(348 146.001)">
      <path id="Path_33" data-name="Path 33" d="M936.9,464.929H706.476a.721.721,0,0,1-.721-.721V353.767a.721.721,0,0,1,1.442,0v109.72H936.9a.721.721,0,1,1,0,1.442Z" transform="translate(-210.433 -174.88)" fill="#fff"/>
      <path id="Path_34" data-name="Path 34" d="M755.707,457H734.75a2.143,2.143,0,0,1-2.141-2.14V425.966a2.143,2.143,0,0,1,2.141-2.14h20.958a2.143,2.143,0,0,1,2.141,2.14v28.89A2.143,2.143,0,0,1,755.707,457Z" transform="translate(-210.433 -174.88)" fill="#ff0"/>
      <path id="Path_35" data-name="Path 35" d="M793.926,457H772.969a2.143,2.143,0,0,1-2.141-2.14V398.564a2.143,2.143,0,0,1,2.141-2.14h20.958a2.143,2.143,0,0,1,2.141,2.14v56.293A2.143,2.143,0,0,1,793.926,457Z" transform="translate(-210.433 -174.88)" fill="#ff0"/>
      <path id="Path_36" data-name="Path 36" d="M832.145,457H811.188a2.143,2.143,0,0,1-2.141-2.14V425.966a2.143,2.143,0,0,1,2.141-2.14h20.957a2.143,2.143,0,0,1,2.141,2.14v28.89A2.143,2.143,0,0,1,832.145,457Z" transform="translate(-210.433 -174.88)" fill="#ff0"/>
      <path id="Path_37" data-name="Path 37" d="M870.365,457H849.407a2.1,2.1,0,0,1-2.141-2.043v-67.3a2.1,2.1,0,0,1,2.141-2.043h20.958a2.1,2.1,0,0,1,2.141,2.044v67.3A2.1,2.1,0,0,1,870.365,457Z" transform="translate(-210.433 -174.88)" fill="#ff0"/>
      <path id="Path_38" data-name="Path 38" d="M908.584,457H887.626a2.143,2.143,0,0,1-2.141-2.14v-86.58a2.143,2.143,0,0,1,2.141-2.14h20.958a2.143,2.143,0,0,1,2.141,2.14v86.58a2.143,2.143,0,0,1-2.14,2.141Z" transform="translate(-210.433 -174.88)" fill="#ff0"/>
      <circle id="Ellipse_13" data-name="Ellipse 13" cx="4.327" cy="4.327" r="4.327" transform="translate(530.469 231.639)" fill="#fff"/>
      <circle id="Ellipse_14" data-name="Ellipse 14" cx="4.327" cy="4.327" r="4.327" transform="translate(568.688 203.516)" fill="#fff"/>
      <circle id="Ellipse_15" data-name="Ellipse 15" cx="4.327" cy="4.327" r="4.327" transform="translate(606.907 231.639)" fill="#fff"/>
      <circle id="Ellipse_16" data-name="Ellipse 16" cx="4.327" cy="4.327" r="4.327" transform="translate(645.126 189.814)" fill="#fff"/>
      <circle id="Ellipse_17" data-name="Ellipse 17" cx="4.327" cy="4.327" r="4.327" transform="translate(683.345 173.95)" fill="#fff"/>
      <path id="Path_39" data-name="Path 39" d="M611.325,236.935l-38.31-28.694-37.787,28.3-.865-1.154,38.652-28.951L611.143,235l37.888-41.463.153-.062,38.219-15.4.539,1.338-38.067,15.338Z" fill="#fff"/>
    </g>
    <text id="Smart_Money" data-name="Smart Money" transform="translate(846 470)" fill="#fff" font-size="36" font-family="Raleway" font-weight="600"><tspan x="0" y="0">Smart Money</tspan></text>
  </g>
</svg>
